<svg width="13" height="15" viewBox="0 0 13 15" fill="none" xmlns="http://www.w3.org/2000/svg">
<path id="Vector" d="M11.1506 12.3275H2.09183C1.2797 12.3275 0.621338 11.6692 0.621338 10.857C0.621338 10.5905 0.693771 10.329 0.830893 10.1005C1.70525 8.64322 2.16712 6.97572 2.16712 5.27627V4.31015C2.16712 2.34221 3.76246 0.746871 5.73041 0.746871H7.51205C9.47999 0.746871 11.0753 2.34221 11.0753 4.31015V5.27627C11.0753 6.97572 11.5372 8.64322 12.4116 10.1005C12.8294 10.7969 12.6036 11.7001 11.9072 12.118C11.6786 12.2551 11.4171 12.3275 11.1506 12.3275ZM8.84828 13.6638C8.2544 14.5546 7.51205 15 6.62123 15C5.73041 15 4.98806 14.5546 4.39418 13.6638" fill="white"/>
</svg>
