<svg width="13" height="14" viewBox="0 0 13 14" fill="none" xmlns="http://www.w3.org/2000/svg">
<g id="&#240;&#159;&#166;&#134; icon &#34;bell ringing&#34;">
<g id="Group">
<path id="Vector" fill-rule="evenodd" clip-rule="evenodd" d="M10.6513 11.6021H2.52126C1.7924 11.6021 1.20154 11.0112 1.20154 10.2823C1.20154 10.0431 1.26655 9.80844 1.38961 9.60334C2.17432 8.29548 2.58884 6.79895 2.58884 5.27374V4.40668C2.58884 2.64051 4.02061 1.20874 5.78678 1.20874H7.38575C9.15193 1.20874 10.5837 2.64051 10.5837 4.40668V5.27374C10.5837 6.79895 10.9982 8.29548 11.7829 9.60334C12.1579 10.2283 11.9553 11.039 11.3303 11.414C11.1252 11.537 10.8905 11.6021 10.6513 11.6021Z" fill="white"/>
<path id="Vector_2" fill-rule="evenodd" clip-rule="evenodd" d="M12.1829 2.80762C11.9693 2.06107 11.7028 1.52808 11.3834 1.20865C11.0639 0.889216 10.531 0.622721 9.7844 0.409161" fill="white"/>
<path id="Vector_3" fill-rule="evenodd" clip-rule="evenodd" d="M1.06055 2.80811C1.22698 2.06156 1.46992 1.52857 1.78935 1.20913C2.10878 0.889704 2.66533 0.623209 3.459 0.40965" fill="white"/>
<path id="Vector_4" fill-rule="evenodd" clip-rule="evenodd" d="M8.58533 12.8013C8.05234 13.6007 7.3861 14.0005 6.58661 14.0005C5.78713 14.0005 5.12089 13.6007 4.5879 12.8013" fill="white"/>
</g>
</g>
</svg>
