<svg width="14" height="9" viewBox="0 0 14 9" fill="none" xmlns="http://www.w3.org/2000/svg">
<g id="&#240;&#159;&#166;&#134; icon &#34;eye&#34;">
<g id="Group">
<path id="Vector" fill-rule="evenodd" clip-rule="evenodd" d="M6.89899 8.38238C9.10813 8.38238 11.1081 7.08826 12.899 4.50003C11.1081 1.91179 9.10813 0.617676 6.89899 0.617676C4.68985 0.617676 2.68985 1.91179 0.898987 4.50003C2.68985 7.08826 4.68985 8.38238 6.89899 8.38238Z" stroke="black" stroke-width="0.541297" stroke-linecap="round" stroke-linejoin="round"/>
<path id="Vector_2" fill-rule="evenodd" clip-rule="evenodd" d="M6.89899 2.02954C7.02933 2.02954 7.1573 2.03963 7.28218 2.05908C7.26206 2.16418 7.25194 2.27215 7.25194 2.38248C7.25194 3.3571 8.04202 4.14719 9.01664 4.14719C9.12698 4.14719 9.23495 4.13706 9.33967 4.11769C9.35949 4.24182 9.36958 4.3698 9.36958 4.50013C9.36958 5.8646 8.26346 6.97072 6.89899 6.97072C5.53453 6.97072 4.42841 5.8646 4.42841 4.50013C4.42841 3.13566 5.53453 2.02954 6.89899 2.02954Z" stroke="black" stroke-width="0.541297" stroke-linecap="round" stroke-linejoin="round"/>
</g>
</g>
</svg>
