<svg width="14" height="15" viewBox="0 0 14 15" fill="none" xmlns="http://www.w3.org/2000/svg">
<g id="&#240;&#159;&#166;&#134; icon &#34;lightbulb on&#34;">
<g id="Group">
<path id="Vector" d="M5.39899 13.875H8.39899" stroke="black" stroke-width="0.714775" stroke-linecap="round" stroke-linejoin="round"/>
<path id="Vector_2" fill-rule="evenodd" clip-rule="evenodd" d="M6.89899 3.75C8.76295 3.75 10.274 5.26104 10.274 7.125C10.274 8.44978 9.5107 9.59629 8.3999 10.1487L8.39899 10.875C8.39899 11.7034 7.72741 12.375 6.89899 12.375C6.07056 12.375 5.39899 11.7034 5.39899 10.875L5.39883 10.1491C4.28763 9.59681 3.52399 8.45008 3.52399 7.125C3.52399 5.26104 5.03503 3.75 6.89899 3.75Z" stroke="black" stroke-width="0.714775" stroke-linecap="round" stroke-linejoin="round"/>
<path id="Vector_3" d="M6.89899 1.875V1.125" stroke="black" stroke-width="0.714775" stroke-linecap="round" stroke-linejoin="round"/>
<path id="Vector_4" d="M10.649 3.375L11.399 2.625" stroke="black" stroke-width="0.714775" stroke-linecap="round" stroke-linejoin="round"/>
<path id="Vector_5" d="M3.14899 3.375L2.39899 2.625" stroke="black" stroke-width="0.714775" stroke-linecap="round" stroke-linejoin="round"/>
<path id="Vector_6" d="M10.649 10.125L11.399 10.875" stroke="black" stroke-width="0.714775" stroke-linecap="round" stroke-linejoin="round"/>
<path id="Vector_7" d="M3.14899 10.125L2.39899 10.875" stroke="black" stroke-width="0.714775" stroke-linecap="round" stroke-linejoin="round"/>
<path id="Vector_8" d="M1.64899 6.375H0.898987" stroke="black" stroke-width="0.714775" stroke-linecap="round" stroke-linejoin="round"/>
<path id="Vector_9" d="M12.899 6.375H12.149" stroke="black" stroke-width="0.714775" stroke-linecap="round" stroke-linejoin="round"/>
</g>
</g>
</svg>
