<svg width="57" height="44" viewBox="0 0 57 44" fill="none" xmlns="http://www.w3.org/2000/svg">
<g id="&#240;&#159;&#166;&#134; icon &#34;camera alt&#34;">
<g id="Group">
<path id="Vector" fill-rule="evenodd" clip-rule="evenodd" d="M2 34.9207V15.1683C2 11.532 4.94782 8.58414 8.58414 8.58414H15.1683L22.0112 2H34.9167L41.2356 8.58414H48.089C51.7253 8.58414 54.6731 11.532 54.6731 15.1683V34.9207C54.6731 38.557 51.7253 41.5048 48.089 41.5048H8.58414C4.94782 41.5048 2 38.557 2 34.9207Z" stroke="black" stroke-width="3.29207" stroke-linecap="round" stroke-linejoin="round"/>
<path id="Vector_2" fill-rule="evenodd" clip-rule="evenodd" d="M38.2129 25.0445C38.2129 19.59 33.7911 15.1683 28.3367 15.1683C22.8822 15.1683 18.4604 19.59 18.4604 25.0445C18.4604 30.499 22.8822 34.9207 28.3367 34.9207C33.7911 34.9207 38.2129 30.499 38.2129 25.0445Z" stroke="black" stroke-width="3.29207" stroke-linecap="round" stroke-linejoin="round"/>
</g>
</g>
</svg>
